<svg width="24" height="25" viewBox="0 0 24 25" fill="none" xmlns="http://www.w3.org/2000/svg">
<path d="M23.04 0.718262H0.96C0.429 0.718262 0 1.14726 0 1.67826V23.7583C0 24.2893 0.429 24.7183 0.96 24.7183H23.04C23.571 24.7183 24 24.2893 24 23.7583V1.67826C24 1.14726 23.571 0.718262 23.04 0.718262ZM20.268 7.72326H18.351C16.848 7.72326 16.557 8.43726 16.557 9.48726V11.8003H20.145L19.677 15.4213H16.557V24.7183H12.816V15.4243H9.687V11.8003H12.816V9.13026C12.816 6.03126 14.709 4.34226 17.475 4.34226C18.801 4.34226 19.938 4.44126 20.271 4.48626V7.72326H20.268Z" fill="#204EA5"/>
</svg>
