<svg width="24" height="25" viewBox="0 0 24 25" fill="none" xmlns="http://www.w3.org/2000/svg">
<path d="M11.997 8.71656C9.79351 8.71656 7.99529 10.5148 7.99529 12.7183C7.99529 14.9218 9.79351 16.72 11.997 16.72C14.2005 16.72 15.9987 14.9218 15.9987 12.7183C15.9987 10.5148 14.2005 8.71656 11.997 8.71656ZM23.9991 12.7183C23.9991 11.0611 24.0141 9.41903 23.9211 7.76491C23.828 5.84362 23.3897 4.13846 21.9847 2.73352C20.5768 1.32556 18.8746 0.89027 16.9533 0.797207C15.2962 0.704144 13.6541 0.719155 12 0.719155C10.3429 0.719155 8.70077 0.704144 7.04665 0.797207C5.12536 0.89027 3.4202 1.32857 2.01525 2.73352C0.607303 4.14147 0.172008 5.84362 0.0789456 7.76491C-0.0141172 9.42203 0.000892936 11.0641 0.000892936 12.7183C0.000892936 14.3724 -0.0141172 16.0175 0.0789456 17.6716C0.172008 19.5929 0.610305 21.2981 2.01525 22.703C3.42321 24.111 5.12536 24.5463 7.04665 24.6393C8.70377 24.7324 10.3459 24.7174 12 24.7174C13.6571 24.7174 15.2992 24.7324 16.9533 24.6393C18.8746 24.5463 20.5798 24.108 21.9847 22.703C23.3927 21.2951 23.828 19.5929 23.9211 17.6716C24.0171 16.0175 23.9991 14.3754 23.9991 12.7183ZM11.997 18.8754C8.58969 18.8754 5.83984 16.1256 5.83984 12.7183C5.83984 9.31096 8.58969 6.5611 11.997 6.5611C15.4043 6.5611 18.1542 9.31096 18.1542 12.7183C18.1542 16.1256 15.4043 18.8754 11.997 18.8754ZM18.4063 7.7469C17.6108 7.7469 16.9684 7.10447 16.9684 6.30893C16.9684 5.51339 17.6108 4.87096 18.4063 4.87096C19.2019 4.87096 19.8443 5.51339 19.8443 6.30893C19.8445 6.49784 19.8075 6.68493 19.7353 6.8595C19.6631 7.03407 19.5572 7.19268 19.4237 7.32626C19.2901 7.45983 19.1315 7.56575 18.9569 7.63793C18.7823 7.71011 18.5952 7.74714 18.4063 7.7469Z" fill="#204EA5"/>
</svg>
