<svg width="159" height="40" viewBox="0 0 159 40" fill="none" xmlns="http://www.w3.org/2000/svg">
<g clip-path="url(#clip0_0_103)">
<path d="M46.7961 27.6705H58.0859V24.27H50.8087V11.4613H46.7961V27.6705Z" fill="#2F234F"/>
<path d="M64.7747 25.4035C63.1651 25.4035 62.3263 23.9979 62.3263 21.8896C62.3263 19.7813 63.1651 18.353 64.7747 18.353C66.3843 18.353 67.2457 19.7813 67.2457 21.8896C67.2457 23.9979 66.3843 25.4035 64.7747 25.4035ZM64.7973 28.0332C68.5379 28.0332 70.9863 25.3808 70.9863 21.8896C70.9863 18.3984 68.5379 15.746 64.7973 15.746C61.0794 15.746 58.5857 18.3984 58.5857 21.8896C58.5857 25.3808 61.0794 28.0332 64.7973 28.0332Z" fill="#2F234F"/>
<path d="M77.4609 31.6831C79.1839 31.6831 80.7028 31.2977 81.7229 30.3909C82.6524 29.5521 83.2645 28.2825 83.2645 26.5369V16.0633H79.7279V17.3102H79.6826C79.0025 16.3354 77.9597 15.7233 76.4181 15.7233C73.539 15.7233 71.544 18.1263 71.544 21.5268C71.544 25.0861 73.9697 27.0357 76.5768 27.0357C77.9823 27.0357 78.8665 26.4689 79.5466 25.6981H79.6373V26.8543C79.6373 28.2599 78.9798 29.076 77.4156 29.076C76.1914 29.076 75.5793 28.5546 75.3753 27.9425H71.7934C72.1561 30.3682 74.2644 31.6831 77.4609 31.6831ZM77.4383 24.2926C76.0554 24.2926 75.1486 23.1591 75.1486 21.4135C75.1486 19.6452 76.0554 18.5117 77.4383 18.5117C78.9798 18.5117 79.796 19.8266 79.796 21.3908C79.796 23.0231 79.0478 24.2926 77.4383 24.2926Z" fill="#2F234F"/>
<path d="M90.5363 25.4035C88.9267 25.4035 88.0879 23.9979 88.0879 21.8896C88.0879 19.7813 88.9267 18.353 90.5363 18.353C92.1459 18.353 93.0074 19.7813 93.0074 21.8896C93.0074 23.9979 92.1459 25.4035 90.5363 25.4035ZM90.559 28.0332C94.2996 28.0332 96.7482 25.3808 96.7482 21.8896C96.7482 18.3984 94.2996 15.746 90.559 15.746C86.8411 15.746 84.3474 18.3984 84.3474 21.8896C84.3474 25.3808 86.8411 28.0332 90.559 28.0332Z" fill="#2F234F"/>
<path d="M97.827 27.6705H101.522V16.0634H97.827V27.6705ZM97.827 14.4538H101.522V11.4613H97.827V14.4538Z" fill="#2F234F"/>
<path d="M103.125 31.5017H106.82V26.4689H106.866C107.591 27.4438 108.657 28.0332 110.153 28.0332C113.191 28.0332 115.208 25.6301 115.208 21.8669C115.208 18.3757 113.327 15.7233 110.244 15.7233C108.657 15.7233 107.523 16.426 106.73 17.4689H106.662V16.0633H103.125V31.5017ZM109.201 25.1767C107.614 25.1767 106.707 23.8845 106.707 22.0029C106.707 20.1213 107.523 18.6931 109.133 18.6931C110.72 18.6931 111.468 20.0079 111.468 22.0029C111.468 23.9752 110.606 25.1767 109.201 25.1767Z" fill="#2F234F"/>
<path d="M121.225 28.0332C124.263 28.0332 126.508 26.7183 126.508 24.1792C126.508 21.2095 124.105 20.688 122.064 20.348C120.591 20.0759 119.276 19.9626 119.276 19.1465C119.276 18.421 119.979 18.081 120.885 18.081C121.906 18.081 122.608 18.3983 122.744 19.4412H126.145C125.963 17.1515 124.195 15.7233 120.908 15.7233C118.165 15.7233 115.898 16.9928 115.898 19.4412C115.898 22.1616 118.052 22.7057 120.069 23.0457C121.611 23.3178 123.016 23.4311 123.016 24.474C123.016 25.2221 122.314 25.6301 121.203 25.6301C119.979 25.6301 119.208 25.0634 119.072 23.9072H115.581C115.694 26.4689 117.825 28.0332 121.225 28.0332Z" fill="#2F234F"/>
<path d="M131.526 28.0105C133.136 28.0105 134.156 27.3758 134.995 26.2423H135.063V27.6705H138.599V16.0634H134.904V22.547C134.904 23.9299 134.133 24.8821 132.864 24.8821C131.685 24.8821 131.118 24.1793 131.118 22.9097V16.0634H127.446V23.6805C127.446 26.2649 128.851 28.0105 131.526 28.0105Z" fill="#2F234F"/>
<path d="M140.207 27.6705H143.902V21.1641C143.902 19.7812 144.582 18.8064 145.738 18.8064C146.849 18.8064 147.371 19.5319 147.371 20.7787V27.6705H151.066V21.1641C151.066 19.7812 151.723 18.8064 152.902 18.8064C154.013 18.8064 154.535 19.5319 154.535 20.7787V27.6705H158.23V20.1213C158.23 17.5142 156.915 15.7233 154.285 15.7233C152.789 15.7233 151.542 16.358 150.635 17.7636H150.59C150 16.5167 148.844 15.7233 147.325 15.7233C145.648 15.7233 144.537 16.5167 143.812 17.7182H143.744V16.0633H140.207V27.6705Z" fill="#2F234F"/>
<path fill-rule="evenodd" clip-rule="evenodd" d="M9.03464 4.14814C7.68325 5.09308 6.46124 6.21029 5.40041 7.46794C9.73542 7.06548 15.2429 7.72265 21.637 10.9197C28.4651 14.3337 33.9634 14.4491 37.7899 13.711C37.4427 12.6598 37.0055 11.6494 36.4878 10.689C32.1074 11.151 26.4918 10.5394 19.9473 7.26729C15.7915 5.18938 12.1282 4.33342 9.03464 4.14814ZM33.929 7.04689C30.4698 3.18195 25.4428 0.749634 19.8476 0.749634C18.2045 0.749634 16.6102 0.959434 15.0903 1.35368C17.1488 1.91534 19.3355 2.73704 21.637 3.88782C26.4286 6.28354 30.5653 7.05492 33.929 7.04689ZM38.608 17.401C33.9852 18.3138 27.6015 18.1263 19.9473 14.2992C12.7915 10.7213 7.09606 10.7663 3.25485 11.62C3.05658 11.664 2.86298 11.7103 2.67405 11.7584C2.17114 12.8522 1.7697 14.0023 1.48167 15.1967C1.7893 15.1145 2.1072 15.0364 2.43519 14.9634C7.09525 13.9279 13.6795 13.9728 21.637 17.9517C28.793 21.5296 34.4884 21.4845 38.3296 20.6309C38.4612 20.6017 38.5909 20.5715 38.7184 20.5403C38.7324 20.2425 38.7394 19.9428 38.7394 19.6414C38.7394 18.8834 38.6948 18.1357 38.608 17.401ZM38.1016 24.5271C33.5237 25.3275 27.3259 25.0203 19.9473 21.3311C12.7915 17.7532 7.09606 17.7982 3.25485 18.6519C2.40222 18.8413 1.6352 19.072 0.958578 19.3156C0.956733 19.424 0.955811 19.5326 0.955811 19.6414C0.955811 30.0751 9.41395 38.5332 19.8476 38.5332C28.5918 38.5332 35.9484 32.5926 38.1016 24.5271Z" fill="#7F57F1"/>
</g>
<defs>
<clipPath id="clip0_0_103">
<rect width="157.747" height="38.7282" fill="white" transform="translate(0.859985 0.47229)"/>
</clipPath>
</defs>
</svg>
