<svg width="160" height="40" viewBox="0 0 160 40" fill="none" xmlns="http://www.w3.org/2000/svg">
<g clip-path="url(#clip0_0_75)">
<path d="M47.394 27.8205H58.6837V24.42H51.4066V11.6113H47.394V27.8205Z" fill="#3C2B1F"/>
<path d="M65.3726 25.5535C63.763 25.5535 62.9242 24.1479 62.9242 22.0396C62.9242 19.9313 63.763 18.5031 65.3726 18.5031C66.9821 18.5031 67.8436 19.9313 67.8436 22.0396C67.8436 24.1479 66.9821 25.5535 65.3726 25.5535ZM65.3952 28.1832C69.1358 28.1832 71.5842 25.5308 71.5842 22.0396C71.5842 18.5484 69.1358 15.896 65.3952 15.896C61.6773 15.896 59.1836 18.5484 59.1836 22.0396C59.1836 25.5308 61.6773 28.1832 65.3952 28.1832Z" fill="#3C2B1F"/>
<path d="M78.0588 31.8331C79.7817 31.8331 81.3006 31.4477 82.3208 30.5409C83.2503 29.7021 83.8624 28.4326 83.8624 26.687V16.2133H80.3258V17.4602H80.2805C79.6004 16.4854 78.5575 15.8733 77.016 15.8733C74.1368 15.8733 72.1419 18.2763 72.1419 21.6769C72.1419 25.2361 74.5676 27.1857 77.1747 27.1857C78.5802 27.1857 79.4643 26.619 80.1444 25.8482H80.2351V27.0043C80.2351 28.4099 79.5777 29.226 78.0134 29.226C76.7893 29.226 76.1772 28.7046 75.9731 28.0925H72.3912C72.754 30.5182 74.8623 31.8331 78.0588 31.8331ZM78.0361 24.4426C76.6532 24.4426 75.7464 23.3091 75.7464 21.5635C75.7464 19.7952 76.6532 18.6617 78.0361 18.6617C79.5777 18.6617 80.3938 19.9766 80.3938 21.5408C80.3938 23.1731 79.6457 24.4426 78.0361 24.4426Z" fill="#3C2B1F"/>
<path d="M91.1342 25.5535C89.5246 25.5535 88.6858 24.1479 88.6858 22.0396C88.6858 19.9313 89.5246 18.5031 91.1342 18.5031C92.7438 18.5031 93.6052 19.9313 93.6052 22.0396C93.6052 24.1479 92.7438 25.5535 91.1342 25.5535ZM91.1569 28.1832C94.8974 28.1832 97.3453 25.5308 97.3453 22.0396C97.3453 18.5484 94.8974 15.896 91.1569 15.896C87.439 15.896 84.9452 18.5484 84.9452 22.0396C84.9452 25.5308 87.439 28.1832 91.1569 28.1832Z" fill="#3C2B1F"/>
<path d="M98.425 27.8205H102.12V16.2134H98.425V27.8205ZM98.425 14.6038H102.12V11.6113H98.425V14.6038Z" fill="#3C2B1F"/>
<path d="M103.723 31.6517H107.418V26.619H107.464C108.189 27.5938 109.255 28.1832 110.751 28.1832C113.789 28.1832 115.806 25.7802 115.806 22.0169C115.806 18.5257 113.925 15.8733 110.842 15.8733C109.255 15.8733 108.121 16.5761 107.328 17.6189H107.26V16.2133H103.723V31.6517ZM109.799 25.3268C108.212 25.3268 107.305 24.0346 107.305 22.1529C107.305 20.2713 108.121 18.8431 109.731 18.8431C111.318 18.8431 112.066 20.158 112.066 22.1529C112.066 24.1252 111.204 25.3268 109.799 25.3268Z" fill="#3C2B1F"/>
<path d="M121.823 28.1832C124.86 28.1832 127.105 26.8683 127.105 24.3293C127.105 21.3595 124.702 20.8381 122.661 20.498C121.188 20.226 119.873 20.1126 119.873 19.2965C119.873 18.571 120.576 18.231 121.482 18.231C122.503 18.231 123.205 18.5484 123.341 19.5912H126.742C126.561 17.3015 124.792 15.8733 121.505 15.8733C118.762 15.8733 116.495 17.1428 116.495 19.5912C116.495 22.3116 118.649 22.8557 120.666 23.1958C122.208 23.4678 123.613 23.5812 123.613 24.624C123.613 25.3721 122.911 25.7802 121.8 25.7802C120.576 25.7802 119.805 25.2134 119.669 24.0572H116.178C116.291 26.619 118.422 28.1832 121.823 28.1832Z" fill="#3C2B1F"/>
<path d="M132.124 28.1606C133.734 28.1606 134.754 27.5258 135.593 26.3923H135.661V27.8205H139.197V16.2134H135.502V22.6971C135.502 24.0799 134.731 25.0321 133.462 25.0321C132.283 25.0321 131.716 24.3293 131.716 23.0598V16.2134H128.044V23.8306C128.044 26.415 129.449 28.1606 132.124 28.1606Z" fill="#3C2B1F"/>
<path d="M140.805 27.8205H144.5V21.3141C144.5 19.9313 145.18 18.9564 146.337 18.9564C147.447 18.9564 147.969 19.6819 147.969 20.9287V27.8205H151.664V21.3141C151.664 19.9313 152.321 18.9564 153.5 18.9564C154.611 18.9564 155.133 19.6819 155.133 20.9287V27.8205H158.828V20.2713C158.828 17.6642 157.513 15.8733 154.883 15.8733C153.387 15.8733 152.14 16.5081 151.233 17.9136H151.188C150.599 16.6667 149.442 15.8733 147.923 15.8733C146.246 15.8733 145.135 16.6667 144.41 17.8683H144.342V16.2133H140.805V27.8205Z" fill="#3C2B1F"/>
<path d="M24.8489 2.33958L21.1338 1.34412L18.003 13.0283L15.1765 2.47974L11.4614 3.47521L14.5152 14.8721L6.90877 7.26574L4.18911 9.98539L12.5324 18.3288L2.14215 15.5447L1.14669 19.2598L12.4994 22.3017C12.3694 21.7411 12.3006 21.157 12.3006 20.5568C12.3006 16.3084 15.7446 12.8644 19.993 12.8644C24.2414 12.8644 27.6854 16.3084 27.6854 20.5568C27.6854 21.1531 27.6174 21.7337 27.4891 22.291L37.8066 25.0555L38.802 21.3404L27.4042 18.2864L37.7951 15.5021L36.7996 11.787L25.4023 14.8409L33.0087 7.23451L30.289 4.51485L22.0615 12.7425L24.8489 2.33958Z" fill="#F97316"/>
<path d="M27.479 22.3342C27.1605 23.6808 26.488 24.8906 25.5653 25.8598L33.0399 33.3345L35.7595 30.6148L27.479 22.3342Z" fill="#F97316"/>
<path d="M25.4898 25.9381C24.5559 26.8919 23.3759 27.6036 22.0525 27.9704L24.7723 38.121L28.4874 37.1255L25.4898 25.9381Z" fill="#F97316"/>
<path d="M21.9137 28.0075C21.2997 28.1653 20.6562 28.2492 19.993 28.2492C19.2825 28.2492 18.5944 28.1529 17.9413 27.9725L15.2189 38.1324L18.934 39.1278L21.9137 28.0075Z" fill="#F97316"/>
<path d="M17.8099 27.935C16.5068 27.55 15.3477 26.8292 14.4329 25.8727L6.93999 33.3656L9.65965 36.0853L17.8099 27.935Z" fill="#F97316"/>
<path d="M14.3704 25.8065C13.4714 24.844 12.8165 23.6504 12.5048 22.3246L2.15359 25.0982L3.14904 28.8133L14.3704 25.8065Z" fill="#F97316"/>
</g>
<defs>
<clipPath id="clip0_0_75">
<rect width="158.691" height="38.7282" fill="white" transform="translate(0.846893 0.47229)"/>
</clipPath>
</defs>
</svg>
