<svg width="162" height="40" viewBox="0 0 162 40" fill="none" xmlns="http://www.w3.org/2000/svg">
<g clip-path="url(#clip0_0_63)">
<path d="M49.91 27.0512H61.1998V23.6507H53.9227V10.842H49.91V27.0512Z" fill="#340E0E"/>
<path d="M67.8885 24.7842C66.279 24.7842 65.4402 23.3787 65.4402 21.2703C65.4402 19.162 66.279 17.7338 67.8885 17.7338C69.4981 17.7338 70.3596 19.162 70.3596 21.2703C70.3596 23.3787 69.4981 24.7842 67.8885 24.7842ZM67.9112 27.4139C71.6518 27.4139 74.1002 24.7615 74.1002 21.2703C74.1002 17.7791 71.6518 15.1267 67.9112 15.1267C64.1933 15.1267 61.6996 17.7791 61.6996 21.2703C61.6996 24.7615 64.1933 27.4139 67.9112 27.4139Z" fill="#340E0E"/>
<path d="M80.5749 31.0638C82.2978 31.0638 83.8167 30.6784 84.8369 29.7716C85.7663 28.9328 86.3784 27.6633 86.3784 25.9177V15.4441H82.8419V16.6909H82.7965C82.1164 15.7161 81.0736 15.104 79.532 15.104C76.6529 15.104 74.6579 17.507 74.6579 20.9076C74.6579 24.4668 77.0837 26.4164 79.6907 26.4164C81.0963 26.4164 81.9804 25.8497 82.6605 25.0789H82.7512V26.2351C82.7512 27.6406 82.0938 28.4567 80.5295 28.4567C79.3053 28.4567 78.6932 27.9353 78.4892 27.3232H74.9073C75.27 29.7489 77.3784 31.0638 80.5749 31.0638ZM80.5522 23.6733C79.1693 23.6733 78.2625 22.5398 78.2625 20.7942C78.2625 19.0259 79.1693 17.8924 80.5522 17.8924C82.0938 17.8924 82.9099 19.2073 82.9099 20.7715C82.9099 22.4038 82.1618 23.6733 80.5522 23.6733Z" fill="#340E0E"/>
<path d="M93.6502 24.7842C92.0406 24.7842 91.2018 23.3787 91.2018 21.2703C91.2018 19.162 92.0406 17.7338 93.6502 17.7338C95.2598 17.7338 96.1212 19.162 96.1212 21.2703C96.1212 23.3787 95.2598 24.7842 93.6502 24.7842ZM93.6728 27.4139C97.4134 27.4139 99.8618 24.7615 99.8618 21.2703C99.8618 17.7791 97.4134 15.1267 93.6728 15.1267C89.9549 15.1267 87.4612 17.7791 87.4612 21.2703C87.4612 24.7615 89.9549 27.4139 93.6728 27.4139Z" fill="#340E0E"/>
<path d="M100.941 27.0512H104.636V15.4441H100.941V27.0512ZM100.941 13.8345H104.636V10.842H100.941V13.8345Z" fill="#340E0E"/>
<path d="M106.24 30.8825H109.935V25.8497H109.98C110.706 26.8245 111.771 27.4139 113.267 27.4139C116.305 27.4139 118.323 25.0109 118.323 21.2476C118.323 17.7564 116.441 15.104 113.358 15.104C111.771 15.104 110.638 15.8068 109.844 16.8496H109.776V15.4441H106.24V30.8825ZM112.315 24.5575C110.728 24.5575 109.822 23.2653 109.822 21.3836C109.822 19.502 110.638 18.0738 112.247 18.0738C113.834 18.0738 114.582 19.3887 114.582 21.3836C114.582 23.356 113.721 24.5575 112.315 24.5575Z" fill="#340E0E"/>
<path d="M124.339 27.4139C127.377 27.4139 129.621 26.099 129.621 23.56C129.621 20.5902 127.218 20.0688 125.178 19.7287C123.704 19.4567 122.389 19.3433 122.389 18.5272C122.389 17.8018 123.092 17.4617 123.999 17.4617C125.019 17.4617 125.722 17.7791 125.858 18.8219H129.258C129.077 16.5322 127.309 15.104 124.022 15.104C121.279 15.104 119.011 16.3735 119.011 18.8219C119.011 21.5423 121.165 22.0864 123.183 22.4265C124.724 22.6985 126.13 22.8119 126.13 23.8547C126.13 24.6028 125.427 25.0109 124.316 25.0109C123.092 25.0109 122.321 24.4441 122.185 23.2879H118.694C118.807 25.8497 120.938 27.4139 124.339 27.4139Z" fill="#340E0E"/>
<path d="M134.641 27.3913C136.25 27.3913 137.27 26.7565 138.109 25.623H138.177V27.0512H141.714V15.4441H138.019V21.9278C138.019 23.3106 137.248 24.2628 135.978 24.2628C134.799 24.2628 134.233 23.56 134.233 22.2905V15.4441H130.56V23.0613C130.56 25.6457 131.966 27.3913 134.641 27.3913Z" fill="#340E0E"/>
<path d="M143.321 27.0512H147.016V20.5448C147.016 19.162 147.696 18.1871 148.852 18.1871C149.963 18.1871 150.484 18.9126 150.484 20.1595V27.0512H154.18V20.5448C154.18 19.162 154.837 18.1871 156.016 18.1871C157.127 18.1871 157.648 18.9126 157.648 20.1595V27.0512H161.343V19.502C161.343 16.8949 160.028 15.104 157.399 15.104C155.902 15.104 154.656 15.7388 153.749 17.1443H153.703C153.114 15.8975 151.958 15.104 150.439 15.104C148.761 15.104 147.651 15.8975 146.925 17.099H146.857V15.4441H143.321V27.0512Z" fill="#340E0E"/>
<path fill-rule="evenodd" clip-rule="evenodd" d="M20.4615 38.3863C30.8951 38.3863 39.3533 29.9281 39.3533 19.4945C39.3533 9.06082 30.8951 0.602661 20.4615 0.602661C10.0278 0.602661 1.56964 9.06082 1.56964 19.4945C1.56964 29.9281 10.0278 38.3863 20.4615 38.3863ZM26.3551 9.40326C26.6419 8.38425 25.653 7.78167 24.7499 8.4251L12.1426 17.4065C11.1631 18.1043 11.3172 19.4945 12.374 19.4945H15.6938V19.4688H22.1641L16.8921 21.3289L14.5679 29.5857C14.281 30.6047 15.2698 31.2073 16.173 30.5638L28.7804 21.5825C29.7598 20.8847 29.6057 19.4945 28.549 19.4945H23.5145L26.3551 9.40326Z" fill="#F15757"/>
</g>
<defs>
<clipPath id="clip0_0_63">
<rect width="160.58" height="38.7282" fill="white" transform="translate(0.923462 0.47229)"/>
</clipPath>
</defs>
</svg>
