<svg width="161" height="40" viewBox="0 0 161 40" fill="none" xmlns="http://www.w3.org/2000/svg">
<g clip-path="url(#clip0_0_91)">
<path d="M48.9232 27.7268H60.2129V24.3262H52.9358V11.5176H48.9232V27.7268Z" fill="#1A1414"/>
<path d="M66.9016 25.4597C65.2921 25.4597 64.4533 24.0542 64.4533 21.9459C64.4533 19.8375 65.2921 18.4093 66.9016 18.4093C68.5112 18.4093 69.3727 19.8375 69.3727 21.9459C69.3727 24.0542 68.5112 25.4597 66.9016 25.4597ZM66.9243 28.0895C70.6649 28.0895 73.1133 25.4371 73.1133 21.9459C73.1133 18.4547 70.6649 15.8022 66.9243 15.8022C63.2064 15.8022 60.7127 18.4547 60.7127 21.9459C60.7127 25.4371 63.2064 28.0895 66.9243 28.0895Z" fill="#1A1414"/>
<path d="M79.588 31.7393C81.3109 31.7393 82.8298 31.354 83.85 30.4471C84.7794 29.6084 85.3915 28.3388 85.3915 26.5932V16.1196H81.855V17.3665H81.8096C81.1295 16.3916 80.0867 15.7795 78.5451 15.7795C75.666 15.7795 73.6711 18.1826 73.6711 21.5831C73.6711 25.1423 76.0968 27.092 78.7038 27.092C80.1094 27.092 80.9935 26.5252 81.6736 25.7544H81.7643V26.9106C81.7643 28.3162 81.1069 29.1323 79.5426 29.1323C78.3184 29.1323 77.7063 28.6109 77.5023 27.9988H73.9204C74.2831 30.4245 76.3915 31.7393 79.588 31.7393ZM79.5653 24.3489C78.1824 24.3489 77.2756 23.2154 77.2756 21.4698C77.2756 19.7015 78.1824 18.568 79.5653 18.568C81.1069 18.568 81.923 19.8828 81.923 21.4471C81.923 23.0793 81.1749 24.3489 79.5653 24.3489Z" fill="#1A1414"/>
<path d="M92.6633 25.4597C91.0537 25.4597 90.2149 24.0542 90.2149 21.9459C90.2149 19.8375 91.0537 18.4093 92.6633 18.4093C94.2729 18.4093 95.1343 19.8375 95.1343 21.9459C95.1343 24.0542 94.2729 25.4597 92.6633 25.4597ZM92.686 28.0895C96.4265 28.0895 98.8749 25.4371 98.8749 21.9459C98.8749 18.4547 96.4265 15.8022 92.686 15.8022C88.968 15.8022 86.4743 18.4547 86.4743 21.9459C86.4743 25.4371 88.968 28.0895 92.686 28.0895Z" fill="#1A1414"/>
<path d="M99.9536 27.7268H103.649V16.1196H99.9536V27.7268ZM99.9536 14.51H103.649V11.5176H99.9536V14.51Z" fill="#1A1414"/>
<path d="M105.253 31.558H108.948V26.5252H108.993C109.719 27.5 110.784 28.0894 112.281 28.0894C115.318 28.0894 117.336 25.6864 117.336 21.9232C117.336 18.432 115.454 15.7795 112.371 15.7795C110.784 15.7795 109.651 16.4823 108.857 17.5251H108.789V16.1196H105.253V31.558ZM111.328 25.233C109.741 25.233 108.835 23.9408 108.835 22.0592C108.835 20.1776 109.651 18.7493 111.26 18.7493C112.847 18.7493 113.595 20.0642 113.595 22.0592C113.595 24.0315 112.734 25.233 111.328 25.233Z" fill="#1A1414"/>
<path d="M123.352 28.0894C126.39 28.0894 128.634 26.7746 128.634 24.2355C128.634 21.2657 126.231 20.7443 124.191 20.4043C122.717 20.1322 121.402 20.0189 121.402 19.2027C121.402 18.4773 122.105 18.1372 123.012 18.1372C124.032 18.1372 124.735 18.4546 124.871 19.4974H128.272C128.09 17.2078 126.322 15.7795 123.035 15.7795C120.292 15.7795 118.025 17.0491 118.025 19.4974C118.025 22.2179 120.178 22.762 122.196 23.102C123.737 23.3741 125.143 23.4874 125.143 24.5302C125.143 25.2783 124.44 25.6864 123.329 25.6864C122.105 25.6864 121.334 25.1197 121.198 23.9635H117.707C117.821 26.5252 119.952 28.0894 123.352 28.0894Z" fill="#1A1414"/>
<path d="M133.654 28.0668C135.263 28.0668 136.284 27.432 137.122 26.2985H137.19V27.7268H140.727V16.1196H137.032V22.6033C137.032 23.9862 136.261 24.9383 134.991 24.9383C133.812 24.9383 133.246 24.2356 133.246 22.966V16.1196H129.573V23.7368C129.573 26.3212 130.979 28.0668 133.654 28.0668Z" fill="#1A1414"/>
<path d="M142.334 27.7267H146.029V21.2204C146.029 19.8375 146.709 18.8627 147.865 18.8627C148.976 18.8627 149.497 19.5881 149.497 20.835V27.7267H153.193V21.2204C153.193 19.8375 153.85 18.8627 155.029 18.8627C156.14 18.8627 156.661 19.5881 156.661 20.835V27.7267H160.356V20.1776C160.356 17.5705 159.042 15.7795 156.412 15.7795C154.916 15.7795 153.669 16.4143 152.762 17.8199H152.717C152.127 16.573 150.971 15.7795 149.452 15.7795C147.774 15.7795 146.664 16.573 145.938 17.7745H145.87V16.1196H142.334V27.7267Z" fill="#1A1414"/>
<path fill-rule="evenodd" clip-rule="evenodd" d="M20.4193 0.908569C31.0571 0.908569 39.6807 9.53218 39.6807 20.17C39.6807 30.8079 31.0571 39.4315 20.4193 39.4315C9.78142 39.4315 1.15778 30.8079 1.15778 20.17C1.15778 9.53218 9.78142 0.908569 20.4193 0.908569ZM38.9414 20.17C38.9414 9.94053 30.6487 1.64783 20.4193 1.64783C19.5941 1.64783 18.7816 1.70178 17.985 1.80636C18.4997 1.76136 19.0205 1.73838 19.5468 1.73838C29.3217 1.73838 37.2457 9.66244 37.2457 19.4373C37.2457 29.212 29.3217 37.1361 19.5468 37.1361C10.2927 37.1361 2.69746 30.0338 1.91455 20.9826C2.33986 30.8351 10.462 38.6922 20.4193 38.6922C30.6487 38.6922 38.9414 30.3995 38.9414 20.17ZM36.5064 19.4373C36.5064 10.0707 28.9134 2.47765 19.5468 2.47765C18.7864 2.47765 18.0375 2.52771 17.3034 2.62471C17.7554 2.58668 18.2127 2.56728 18.6745 2.56728C27.5863 2.56728 34.8108 9.79176 34.8108 18.7035C34.8108 27.6153 27.5863 34.8398 18.6745 34.8398C10.2482 34.8398 3.33036 28.3809 2.60173 20.1439C2.97219 29.1827 10.4171 36.3968 19.5468 36.3968C28.9134 36.3968 36.5064 28.8037 36.5064 19.4373ZM18.6745 3.30655C27.178 3.30655 34.0715 10.2 34.0715 18.7035C34.0715 27.207 27.178 34.1004 18.6745 34.1004C10.3681 34.1004 3.59783 27.5227 3.28861 19.2918C3.9562 26.721 10.1993 32.5434 17.8023 32.5434C25.8505 32.5434 32.375 26.019 32.375 17.9707C32.375 9.92239 25.8505 3.39802 17.8023 3.39802C17.3859 3.39802 16.9736 3.41549 16.5661 3.44971C17.2555 3.35532 17.9593 3.30655 18.6745 3.30655ZM31.6356 17.9707C31.6356 10.3307 25.4422 4.13729 17.8023 4.13729C17.1567 4.13729 16.5215 4.18149 15.8996 4.26705C16.2392 4.24047 16.5824 4.22694 16.9289 4.22694C24.1142 4.22694 29.939 10.0517 29.939 17.237C29.939 24.4222 24.1142 30.2471 16.9289 30.2471C10.166 30.2471 4.60829 25.0869 3.97833 18.489C4.25088 25.8888 10.3358 31.8041 17.8023 31.8041C25.4422 31.8041 31.6356 25.6107 31.6356 17.9707ZM16.9289 4.96619C23.7059 4.96619 29.1997 10.4601 29.1997 17.237C29.1997 24.014 23.7059 29.5078 16.9289 29.5078C10.2855 29.5078 4.87508 24.2283 4.66449 17.636C5.23326 23.4265 10.1166 27.9508 16.0566 27.9508C22.3789 27.9508 27.5041 22.8255 27.5041 16.5033C27.5041 10.181 22.3789 5.05582 16.0566 5.05582C15.7667 5.05582 15.4792 5.0666 15.1947 5.08778C15.7613 5.00764 16.3402 4.96619 16.9289 4.96619ZM26.7648 16.5033C26.7648 10.5893 21.9706 5.79509 16.0566 5.79509C15.5167 5.79509 14.9863 5.83504 14.4679 5.91213C14.7045 5.89519 14.9434 5.88656 15.1843 5.88656C20.643 5.88656 25.0683 10.3118 25.0683 15.7705C25.0683 21.2292 20.643 25.6544 15.1843 25.6544C10.0692 25.6544 5.86158 21.7688 5.35214 16.7882C5.50317 22.5705 10.2379 27.2115 16.0566 27.2115C21.9706 27.2115 26.7648 22.4173 26.7648 16.5033ZM15.1843 6.62583C20.2348 6.62583 24.3289 10.72 24.3289 15.7705C24.3289 20.821 20.2348 24.9151 15.1843 24.9151C10.1981 24.9151 6.14401 20.9245 6.04162 15.9629C6.50223 20.1227 10.0293 23.3581 14.312 23.3581C18.9077 23.3581 22.6333 19.6325 22.6333 15.0368C22.6333 10.4411 18.9077 6.71546 14.312 6.71546C14.1362 6.71546 13.9618 6.72091 13.7887 6.73165C14.2437 6.66197 14.7098 6.62583 15.1843 6.62583ZM21.8941 15.0368C21.8941 10.8493 18.4995 7.45473 14.312 7.45473C13.8915 7.45473 13.479 7.48896 13.0771 7.55479C13.1968 7.54848 13.3174 7.54528 13.4387 7.54528C17.1714 7.54528 20.1974 10.5712 20.1974 14.304C20.1974 18.0367 17.1714 21.0627 13.4387 21.0627C9.98724 21.0627 7.14002 18.4755 6.73056 15.1346C6.78299 19.2771 10.1572 22.6188 14.312 22.6188C18.4995 22.6188 21.8941 19.2243 21.8941 15.0368ZM13.4387 8.28454C16.7631 8.28454 19.4581 10.9795 19.4581 14.304C19.4581 17.6285 16.7631 20.3234 13.4387 20.3234C10.1143 20.3234 7.41927 17.6285 7.41927 14.304C7.41927 14.296 7.41929 14.288 7.41932 14.2801C7.76544 16.8135 9.93796 18.7655 12.5664 18.7655C15.4356 18.7655 17.7616 16.4395 17.7616 13.5703C17.7616 10.701 15.4356 8.37512 12.5664 8.37512C12.5015 8.37512 12.4369 8.3763 12.3726 8.37866C12.7186 8.31682 13.0749 8.28454 13.4387 8.28454ZM17.0222 13.5703C17.0222 11.1094 15.0274 9.11437 12.5664 9.11437C10.1055 9.11437 8.11049 11.1094 8.11049 13.5703C8.11049 16.0312 10.1055 18.0261 12.5664 18.0261C15.0274 18.0261 17.0222 16.0312 17.0222 13.5703Z" fill="#1A1414"/>
</g>
<defs>
<clipPath id="clip0_0_91">
<rect width="159.636" height="39.6728" fill="white" transform="translate(0.881165)"/>
</clipPath>
</defs>
</svg>
