<svg width="161" height="40" viewBox="0 0 161 40" fill="none" xmlns="http://www.w3.org/2000/svg">
<g clip-path="url(#clip0_0_51)">
<path d="M48.4362 28.1707H59.726V24.7702H52.4489V11.9615H48.4362V28.1707Z" fill="#2F234F"/>
<path d="M66.4148 25.9037C64.8052 25.9037 63.9664 24.4982 63.9664 22.3898C63.9664 20.2815 64.8052 18.8533 66.4148 18.8533C68.0243 18.8533 68.8858 20.2815 68.8858 22.3898C68.8858 24.4982 68.0243 25.9037 66.4148 25.9037ZM66.4374 28.5335C70.178 28.5335 72.6264 25.881 72.6264 22.3898C72.6264 18.8986 70.178 16.2462 66.4374 16.2462C62.7195 16.2462 60.2258 18.8986 60.2258 22.3898C60.2258 25.881 62.7195 28.5335 66.4374 28.5335Z" fill="#2F234F"/>
<path d="M79.101 32.1833C80.8239 32.1833 82.3428 31.7979 83.363 30.8911C84.2924 30.0523 84.9045 28.7828 84.9045 27.0372V16.5636H81.368V17.8104H81.3227C80.6425 16.8356 79.5997 16.2235 78.0581 16.2235C75.179 16.2235 73.1841 18.6266 73.1841 22.0271C73.1841 25.5863 75.6098 27.5359 78.2168 27.5359C79.6224 27.5359 80.5065 26.9692 81.1866 26.1984H81.2773V27.3546C81.2773 28.7601 80.6199 29.5762 79.0556 29.5762C77.8314 29.5762 77.2193 29.0548 77.0153 28.4427H73.4334C73.7961 30.8684 75.9045 32.1833 79.101 32.1833ZM79.0783 24.7928C77.6954 24.7928 76.7886 23.6593 76.7886 21.9137C76.7886 20.1455 77.6954 19.0119 79.0783 19.0119C80.6199 19.0119 81.436 20.3268 81.436 21.8911C81.436 23.5233 80.6879 24.7928 79.0783 24.7928Z" fill="#2F234F"/>
<path d="M92.1764 25.9037C90.5668 25.9037 89.728 24.4982 89.728 22.3898C89.728 20.2815 90.5668 18.8533 92.1764 18.8533C93.786 18.8533 94.6471 20.2815 94.6471 22.3898C94.6471 24.4982 93.786 25.9037 92.1764 25.9037ZM92.1991 28.5335C95.9393 28.5335 98.3876 25.881 98.3876 22.3898C98.3876 18.8986 95.9393 16.2462 92.1991 16.2462C88.4811 16.2462 85.9874 18.8986 85.9874 22.3898C85.9874 25.881 88.4811 28.5335 92.1991 28.5335Z" fill="#2F234F"/>
<path d="M99.4673 28.1707H103.163V16.5636H99.4673V28.1707ZM99.4673 14.954H103.163V11.9615H99.4673V14.954Z" fill="#2F234F"/>
<path d="M104.766 32.002H108.461V26.9692H108.506C109.232 27.944 110.297 28.5334 111.793 28.5334C114.831 28.5334 116.849 26.1304 116.849 22.3671C116.849 18.8759 114.967 16.2235 111.884 16.2235C110.297 16.2235 109.164 16.9263 108.37 17.9691H108.302V16.5636H104.766V32.002ZM110.841 25.677C109.254 25.677 108.347 24.3848 108.347 22.5032C108.347 20.6215 109.164 19.1933 110.773 19.1933C112.36 19.1933 113.108 20.5082 113.108 22.5032C113.108 24.4755 112.247 25.677 110.841 25.677Z" fill="#2F234F"/>
<path d="M122.865 28.5334C125.903 28.5334 128.147 27.2185 128.147 24.6795C128.147 21.7097 125.744 21.1883 123.704 20.8482C122.23 20.5762 120.915 20.4628 120.915 19.6467C120.915 18.9213 121.618 18.5812 122.525 18.5812C123.545 18.5812 124.248 18.8986 124.384 19.9414H127.784C127.603 17.6517 125.835 16.2235 122.547 16.2235C119.804 16.2235 117.537 17.493 117.537 19.9414C117.537 22.6618 119.691 23.2059 121.709 23.546C123.25 23.818 124.656 23.9314 124.656 24.9742C124.656 25.7223 123.953 26.1304 122.842 26.1304C121.618 26.1304 120.847 25.5636 120.711 24.4074H117.22C117.333 26.9692 119.464 28.5334 122.865 28.5334Z" fill="#2F234F"/>
<path d="M133.167 28.5108C134.776 28.5108 135.796 27.876 136.635 26.7425H136.703V28.1707H140.24V16.5636H136.544V23.0473C136.544 24.4302 135.774 25.3823 134.504 25.3823C133.325 25.3823 132.758 24.6795 132.758 23.41V16.5636H129.086V24.1808C129.086 26.7652 130.491 28.5108 133.167 28.5108Z" fill="#2F234F"/>
<path d="M141.847 28.1707H145.543V21.6644C145.543 20.2815 146.223 19.3067 147.379 19.3067C148.49 19.3067 149.011 20.0321 149.011 21.279V28.1707H152.706V21.6644C152.706 20.2815 153.364 19.3067 154.543 19.3067C155.653 19.3067 156.175 20.0321 156.175 21.279V28.1707H159.87V20.6215C159.87 18.0145 158.555 16.2235 155.926 16.2235C154.429 16.2235 153.182 16.8583 152.276 18.2638H152.23C151.641 17.017 150.485 16.2235 148.966 16.2235C147.288 16.2235 146.177 17.017 145.452 18.2185H145.384V16.5636H141.847V28.1707Z" fill="#2F234F"/>
<path fill-rule="evenodd" clip-rule="evenodd" d="M18.9876 38.5612C29.4214 38.5612 37.8794 30.103 37.8794 19.6694C37.8794 9.23574 29.4214 0.777588 18.9876 0.777588C8.55397 0.777588 0.0958252 9.23574 0.0958252 19.6694C0.0958252 30.103 8.55397 38.5612 18.9876 38.5612ZM21.9036 15.3739C23.5139 13.7635 23.5139 11.1526 21.9036 9.54212C20.2931 7.93171 17.6822 7.93171 16.0717 9.54212C14.4614 11.1526 14.4614 13.7635 16.0717 15.3739L18.9876 18.2898L21.9036 15.3739ZM23.2831 22.5853C24.8936 24.1958 27.5045 24.1958 29.1149 22.5853C30.7253 20.9749 30.7253 18.3639 29.1149 16.7535C27.5045 15.1432 24.8936 15.1432 23.2831 16.7535L20.3673 19.6695L23.2831 22.5853ZM21.9036 29.7967C23.5139 28.1863 23.5139 25.5753 21.9036 23.9649L18.9876 21.049L16.0717 23.9649C14.4614 25.5753 14.4614 28.1863 16.0717 29.7967C17.6822 31.4071 20.2931 31.4071 21.9036 29.7967ZM8.86033 22.5853C7.24996 20.9749 7.24996 18.3639 8.86033 16.7535C10.4708 15.1432 13.0817 15.1432 14.6922 16.7535L17.608 19.6695L14.6922 22.5853C13.0817 24.1958 10.4708 24.1958 8.86033 22.5853Z" fill="#7F57F1"/>
</g>
<defs>
<clipPath id="clip0_0_51">
<rect width="160.58" height="38.7282" fill="white" transform="translate(0 0.47229)"/>
</clipPath>
</defs>
</svg>
