<svg width="24" height="25" viewBox="0 0 24 25" fill="none" xmlns="http://www.w3.org/2000/svg">
<path d="M23.04 0.718262H0.96C0.429 0.718262 0 1.14726 0 1.67826V23.7583C0 24.2893 0.429 24.7183 0.96 24.7183H23.04C23.571 24.7183 24 24.2893 24 23.7583V1.67826C24 1.14726 23.571 0.718262 23.04 0.718262ZM18.459 9.40926C18.468 9.55026 18.468 9.69726 18.468 9.84126C18.468 14.2453 15.114 19.3183 8.985 19.3183C7.095 19.3183 5.343 18.7693 3.867 17.8243C4.137 17.8543 4.395 17.8663 4.671 17.8663C6.231 17.8663 7.665 17.3383 8.808 16.4443C7.344 16.4143 6.114 15.4543 5.694 14.1343C6.207 14.2093 6.669 14.2093 7.197 14.0743C6.44318 13.9211 5.76562 13.5117 5.27945 12.9156C4.79327 12.3195 4.52846 11.5735 4.53 10.8043V10.7623C4.971 11.0113 5.49 11.1643 6.033 11.1853C5.57653 10.881 5.20217 10.4689 4.94313 9.98535C4.68409 9.50181 4.54837 8.96182 4.548 8.41326C4.548 7.79226 4.71 7.22526 5.001 6.73326C5.83771 7.76327 6.88179 8.60569 8.06539 9.20576C9.249 9.80583 10.5456 10.1501 11.871 10.2163C11.4 7.95126 13.092 6.11826 15.126 6.11826C16.086 6.11826 16.95 6.52026 17.559 7.16826C18.312 7.02726 19.032 6.74526 19.674 6.36726C19.425 7.13826 18.903 7.78926 18.21 8.20026C18.882 8.12826 19.53 7.94226 20.13 7.68126C19.677 8.34726 19.11 8.93826 18.459 9.40926Z" fill="#204EA5"/>
</svg>
